<svg xmlns="http://www.w3.org/2000/svg" xmlns:xlink="http://www.w3.org/1999/xlink" width="500" zoomAndPan="magnify" viewBox="0 0 375 374.999991" height="500" preserveAspectRatio="xMidYMid meet" version="1.0"><defs><g/><clipPath id="9d7133025f"><path d="M 187.5 0 C 83.945312 0 0 83.945312 0 187.5 C 0 291.054688 83.945312 375 187.5 375 C 291.054688 375 375 291.054688 375 187.5 C 375 83.945312 291.054688 0 187.5 0 Z M 187.5 0 " clip-rule="nonzero"/></clipPath></defs><g clip-path="url(#9d7133025f)"><rect x="-37.5" width="450" fill="#1b4e74" y="-37.499999" height="449.999989" fill-opacity="1"/></g><g fill="#ffffff" fill-opacity="1"><g transform="translate(19.242495, 294.194824)"><g><path d="M 57.125 -20.453125 C 56.695312 -16.984375 57.078125 -14.003906 58.265625 -11.515625 C 59.453125 -9.035156 61.125 -6.925781 63.28125 -5.1875 C 65.445312 -3.457031 67.9375 -2.160156 70.75 -1.296875 C 73.570312 -0.429688 76.28125 0 78.875 0 C 69.132812 0 59.9375 -1.675781 51.28125 -5.03125 C 42.625 -8.382812 35.101562 -12.925781 28.71875 -18.65625 C 22.34375 -24.394531 17.3125 -31.101562 13.625 -38.78125 C 9.945312 -46.46875 8.109375 -54.640625 8.109375 -63.296875 C 8.109375 -68.054688 9.023438 -72.546875 10.859375 -76.765625 C 12.703125 -80.984375 15.191406 -84.660156 18.328125 -87.796875 C 21.472656 -90.929688 25.15625 -93.414062 29.375 -95.25 C 33.59375 -97.09375 38.082031 -98.015625 42.84375 -98.015625 C 47.601562 -98.015625 52.09375 -97.09375 56.3125 -95.25 C 60.53125 -93.414062 64.207031 -90.929688 67.34375 -87.796875 C 70.488281 -84.660156 72.976562 -80.984375 74.8125 -76.765625 C 76.65625 -72.546875 77.578125 -68.054688 77.578125 -63.296875 C 77.578125 -54.203125 74.4375 -46.195312 68.15625 -39.28125 C 65.78125 -36.675781 63.457031 -33.644531 61.1875 -30.1875 C 58.914062 -26.726562 57.5625 -23.484375 57.125 -20.453125 Z M 79.515625 0 L 78.875 0 Z M 170.40625 -227.203125 C 164.988281 -227.203125 160.382812 -224.984375 156.59375 -220.546875 C 152.8125 -216.109375 150.921875 -211.1875 150.921875 -205.78125 L 150.921875 -63.296875 C 150.921875 -55.722656 149.515625 -48.523438 146.703125 -41.703125 C 143.890625 -34.890625 139.941406 -28.773438 134.859375 -23.359375 C 129.773438 -17.953125 123.820312 -13.300781 117 -9.40625 C 110.1875 -5.519531 102.78125 -2.816406 94.78125 -1.296875 C 97.59375 -1.941406 100.457031 -2.804688 103.375 -3.890625 C 106.300781 -4.972656 108.898438 -6.378906 111.171875 -8.109375 C 113.441406 -9.847656 115.28125 -11.796875 116.6875 -13.953125 C 118.09375 -16.117188 118.796875 -18.5 118.796875 -21.09375 C 118.796875 -25.425781 117.492188 -29.320312 114.890625 -32.78125 C 112.296875 -36.238281 109.375 -39.535156 106.125 -42.671875 C 102.882812 -45.816406 99.96875 -49.066406 97.375 -52.421875 C 94.78125 -55.773438 93.484375 -59.398438 93.484375 -63.296875 L 93.484375 -205.78125 C 93.484375 -211.1875 91.585938 -216.109375 87.796875 -220.546875 C 84.015625 -224.984375 79.414062 -227.203125 74 -227.203125 Z M 170.40625 -227.203125 "/></g></g></g><g fill="#ffffff" fill-opacity="1"><g transform="translate(179.567395, 287.46653)"><g><path d="M 64.59375 -227.203125 C 66.320312 -227.203125 67.671875 -226.660156 68.640625 -225.578125 C 69.617188 -224.492188 70.109375 -223.085938 70.109375 -221.359375 L 70.109375 -6.8125 C 70.109375 -4.863281 69.457031 -3.238281 68.15625 -1.9375 C 66.863281 -0.644531 65.242188 0 63.296875 0 L 8.109375 0 C 11.785156 -0.644531 14.921875 -2.804688 17.515625 -6.484375 C 20.117188 -10.171875 21.421875 -13.960938 21.421875 -17.859375 L 21.421875 -201.234375 C 21.421875 -205.128906 20.117188 -208.914062 17.515625 -212.59375 C 14.921875 -216.269531 11.785156 -218.4375 8.109375 -219.09375 L 63.625 -227.203125 Z M 167.8125 -86.984375 C 168.894531 -75.734375 168.242188 -64.96875 165.859375 -54.6875 C 163.472656 -44.414062 159.789062 -35.273438 154.8125 -27.265625 C 149.84375 -19.253906 143.625 -12.707031 136.15625 -7.625 C 128.695312 -2.539062 120.53125 0.429688 111.65625 1.296875 C 104.507812 2.160156 97.53125 1.457031 90.71875 -0.8125 C 83.90625 -3.082031 77.578125 -6.488281 71.734375 -11.03125 C 75.191406 -9.519531 78.328125 -8.765625 81.140625 -8.765625 C 86.554688 -8.765625 91.585938 -10.816406 96.234375 -14.921875 C 100.890625 -19.035156 104.945312 -24.554688 108.40625 -31.484375 C 111.875 -38.410156 114.632812 -46.414062 116.6875 -55.5 C 118.738281 -64.59375 119.765625 -74.113281 119.765625 -84.0625 C 119.765625 -94.019531 118.738281 -103.488281 116.6875 -112.46875 C 114.632812 -121.445312 111.875 -129.34375 108.40625 -136.15625 C 104.945312 -142.976562 100.890625 -148.390625 96.234375 -152.390625 C 91.585938 -156.390625 86.554688 -158.390625 81.140625 -158.390625 C 77.679688 -158.390625 74.546875 -157.742188 71.734375 -156.453125 C 78.003906 -159.472656 85.253906 -161.523438 93.484375 -162.609375 C 102.347656 -163.472656 111 -162.175781 119.4375 -158.71875 C 127.882812 -155.257812 135.515625 -150.117188 142.328125 -143.296875 C 149.140625 -136.484375 154.816406 -128.207031 159.359375 -118.46875 C 163.910156 -108.726562 166.726562 -98.234375 167.8125 -86.984375 Z M 167.8125 -86.984375 "/></g></g></g></svg>